<?xml version="1.0" encoding="UTF-8" standalone="no"?>
<svg
   xmlns:dc="http://purl.org/dc/elements/1.1/"
   xmlns:cc="http://creativecommons.org/ns#"
   xmlns:rdf="http://www.w3.org/1999/02/22-rdf-syntax-ns#"
   xmlns:svg="http://www.w3.org/2000/svg"
   xmlns="http://www.w3.org/2000/svg"
   xmlns:sodipodi="http://sodipodi.sourceforge.net/DTD/sodipodi-0.dtd"
   xmlns:inkscape="http://www.inkscape.org/namespaces/inkscape"
   version="1.1"
   x="0px"
   y="0px"
   viewBox="0 0 512 640"
   enable-background="new 0 0 512 512"
   xml:space="preserve"
   id="svg12"
   sodipodi:docname="document_video.svg"
   inkscape:version="0.92.4 (unknown)"><metadata
     id="metadata18"><rdf:RDF><cc:Work
         rdf:about=""><dc:format>image/svg+xml</dc:format><dc:type
           rdf:resource="http://purl.org/dc/dcmitype/StillImage" /></cc:Work></rdf:RDF></metadata><defs
     id="defs16" /><sodipodi:namedview
     pagecolor="#ffffff"
     bordercolor="#666666"
     borderopacity="1"
     objecttolerance="10"
     gridtolerance="10"
     guidetolerance="10"
     inkscape:pageopacity="0"
     inkscape:pageshadow="2"
     inkscape:window-width="1366"
     inkscape:window-height="744"
     id="namedview14"
     showgrid="false"
     inkscape:zoom="0.9"
     inkscape:cx="243.22222"
     inkscape:cy="320"
     inkscape:window-x="0"
     inkscape:window-y="0"
     inkscape:window-maximized="1"
     inkscape:current-layer="svg12" /><g
     id="g6"
     style="fill:#337ab7;fill-opacity:1"><path
       d="M440.031,112.25L330.312,2.594C328.594,0.922,326.328,0,323.984,0H92.859C79.656,0,68.922,10.75,68.922,23.969v464.094   c0,13.203,10.734,23.938,23.938,23.938h326.281c13.203,0,23.938-10.734,23.938-23.938V118.625   C443,116.25,441.922,113.922,440.031,112.25z M324.438,22.422l96.219,96.234h-96.219V22.422z M424.859,493.781H87.141V18.25   h219.062v94.688c0,13.188,10.75,23.938,23.953,23.938h94.703V493.781z"
       id="path2"
       style="fill:#337ab7;fill-opacity:1" /><path
       d="M203.641,216.156c-7.703,0-13.969,6.266-13.969,13.969v161.562c0,7.688,6.266,13.953,13.969,13.953   c2.719,0,5.359-0.797,7.625-2.297l122.859-80.609c4.141-2.609,6.562-7.016,6.562-11.828s-2.422-9.219-6.484-11.797l-122.938-80.641   C208.984,216.969,206.359,216.156,203.641,216.156z M207.906,383.781V238l111.062,72.906L207.906,383.781z"
       id="path4"
       style="fill:#337ab7;fill-opacity:1" /></g></svg>