<?xml version="1.0" encoding="UTF-8" standalone="no"?>
<svg
   xmlns:dc="http://purl.org/dc/elements/1.1/"
   xmlns:cc="http://creativecommons.org/ns#"
   xmlns:rdf="http://www.w3.org/1999/02/22-rdf-syntax-ns#"
   xmlns:svg="http://www.w3.org/2000/svg"
   xmlns="http://www.w3.org/2000/svg"
   xmlns:sodipodi="http://sodipodi.sourceforge.net/DTD/sodipodi-0.dtd"
   xmlns:inkscape="http://www.inkscape.org/namespaces/inkscape"
   version="1.1"
   x="0px"
   y="0px"
   viewBox="0 0 512 640"
   enable-background="new 0 0 512 512"
   xml:space="preserve"
   id="svg12"
   sodipodi:docname="document_picture.svg"
   inkscape:version="0.92.4 (unknown)"><metadata
     id="metadata18"><rdf:RDF><cc:Work
         rdf:about=""><dc:format>image/svg+xml</dc:format><dc:type
           rdf:resource="http://purl.org/dc/dcmitype/StillImage" /><dc:title /></cc:Work></rdf:RDF></metadata><defs
     id="defs16" /><sodipodi:namedview
     pagecolor="#ffffff"
     bordercolor="#666666"
     borderopacity="1"
     objecttolerance="10"
     gridtolerance="10"
     guidetolerance="10"
     inkscape:pageopacity="0"
     inkscape:pageshadow="2"
     inkscape:window-width="1366"
     inkscape:window-height="744"
     id="namedview14"
     showgrid="false"
     inkscape:zoom="0.9"
     inkscape:cx="260.44444"
     inkscape:cy="321.11111"
     inkscape:window-x="0"
     inkscape:window-y="0"
     inkscape:window-maximized="1"
     inkscape:current-layer="svg12" /><path
     inkscape:connector-curvature="0"
     style="fill:#337ab7;fill-opacity:1"
     id="path2"
     d="M 440.031,112.25 330.312,2.594 C 328.594,0.922 326.328,0 323.984,0 H 92.859 C 79.656,0 68.922,10.75 68.922,23.969 v 464.094 c 0,13.203 10.734,23.938 23.938,23.938 h 326.281 c 13.203,0 23.938,-10.734 23.938,-23.938 V 118.625 C 443,116.25 441.922,113.922 440.031,112.25 Z M 324.438,22.422 420.657,118.656 H 324.438 Z M 424.859,493.781 H 87.141 V 18.25 h 219.062 v 94.688 c 0,13.188 10.75,23.938 23.953,23.938 h 94.703 z" /><polygon
     points="180.71,205.15 179.67,204.12 "
     id="polygon882"
     transform="translate(525.94444,101.89945)" /><g
     id="g914"
     transform="matrix(1.1947115,0,0,1.1947115,407.59103,-28.908596)"
     style="stroke:#337ab7;stroke-opacity:1;fill:#337ab7;fill-opacity:1"><path
       id="path880"
       d="m -219.43056,196.10695 v 182 h 182 v -182 z m 174.12,174.12 h -166.24 v -44.7 l 44.47,-44.44 58.49,58.48 1.55,-1.55 23.68,-23.68 38.05,38 z m 0,-29.28 -30.24,-29.17 -7.81,-8.89 -25.23,25.23 -54.41,-53.33 -4.1,-5.22 -44.44,44.53 v -110.06 h 166.23 z"
       inkscape:connector-curvature="0"
       style="stroke:#337ab7;stroke-opacity:1;fill:#337ab7;fill-opacity:1" /><path
       id="path884"
       d="m -94.27056,275.15695 c 15.84,0 30.81,-15 30.81,-30.81 0,-15.81 -15,-30.81 -30.81,-30.81 -15.81,0 -30.81,14.98 -30.81,30.8 0,15.82 15,30.8 30.81,30.82 z m 0,-52.6 c 12.62,0 21.79,9.17 21.79,21.79 0,12.62 -9.17,21.79 -21.79,21.79 -12.62,0 -21.81,-9.16 -21.81,-21.8 0,-12.64 9.19,-21.78 21.81,-21.78 z"
       inkscape:connector-curvature="0"
       style="stroke:#337ab7;stroke-opacity:1;fill:#337ab7;fill-opacity:1" /></g></svg>