<?xml version="1.0" encoding="UTF-8" standalone="no"?>
<svg
   xmlns:dc="http://purl.org/dc/elements/1.1/"
   xmlns:cc="http://creativecommons.org/ns#"
   xmlns:rdf="http://www.w3.org/1999/02/22-rdf-syntax-ns#"
   xmlns:svg="http://www.w3.org/2000/svg"
   xmlns="http://www.w3.org/2000/svg"
   xmlns:sodipodi="http://sodipodi.sourceforge.net/DTD/sodipodi-0.dtd"
   xmlns:inkscape="http://www.inkscape.org/namespaces/inkscape"
   version="1.1"
   x="0px"
   y="0px"
   viewBox="0 0 512 640"
   enable-background="new 0 0 512 512"
   xml:space="preserve"
   id="svg12"
   sodipodi:docname="document_pdf.svg"
   inkscape:version="0.92.4 (unknown)"><metadata
     id="metadata18"><rdf:RDF><cc:Work
         rdf:about=""><dc:format>image/svg+xml</dc:format><dc:type
           rdf:resource="http://purl.org/dc/dcmitype/StillImage" /><dc:title></dc:title></cc:Work></rdf:RDF></metadata><defs
     id="defs16" /><sodipodi:namedview
     pagecolor="#ffffff"
     bordercolor="#666666"
     borderopacity="1"
     objecttolerance="10"
     gridtolerance="10"
     guidetolerance="10"
     inkscape:pageopacity="0"
     inkscape:pageshadow="2"
     inkscape:window-width="1366"
     inkscape:window-height="744"
     id="namedview14"
     showgrid="false"
     inkscape:zoom="0.9"
     inkscape:cx="243.22222"
     inkscape:cy="320"
     inkscape:window-x="0"
     inkscape:window-y="0"
     inkscape:window-maximized="1"
     inkscape:current-layer="svg12" /><path
     inkscape:connector-curvature="0"
     style="fill:#337ab7;fill-opacity:1"
     id="path2"
     d="M 440.031,112.25 330.312,2.594 C 328.594,0.922 326.328,0 323.984,0 H 92.859 C 79.656,0 68.922,10.75 68.922,23.969 v 464.094 c 0,13.203 10.734,23.938 23.938,23.938 h 326.281 c 13.203,0 23.938,-10.734 23.938,-23.938 V 118.625 C 443,116.25 441.922,113.922 440.031,112.25 Z M 324.438,22.422 420.657,118.656 H 324.438 Z M 424.859,493.781 H 87.141 V 18.25 h 219.062 v 94.688 c 0,13.188 10.75,23.938 23.953,23.938 h 94.703 z" /><path
     d="m 329.80981,319.68614 c -10.958,0 -24.632,1.828 -39.692,5.296 -15.775,-12.081 -31.78401,-26.79301 -45.52801,-41.84101 4.546,-44.947 -2.746,-63.697 -9.751,-71.509 -5.511,-6.144 -13.181,-8.278 -21.687,-5.945 -9.732,2.669 -13.405,8.782 -14.773,13.44 -5.663,19.288 17.856,50.098 33.7,68.042 -2.427,20.65701 -7.03,42.79601 -13.083,62.92501 -14.355,6.949 -26.657,14.365 -35.695,21.526 -11.381,9.019 -17.853,17.8 -19.236,26.103 -1.138,6.826 1.122,13.22 6.534,18.49 4.179,4.069 8.792,6.132 13.709,6.133 0.001,0 0,0 0.001,0 20.943,0 36.655,-38.744 44.589,-63.662 18.454,-8.532 39.03701,-15.815 58.53501,-20.713 16.743,12.327 39.27,26.172 55.986,26.172 11.033,0 18.367,-5.956 20.649,-16.769 1.84,-8.711 -0.908,-14.405 -3.538,-17.648 -5.403,-6.661 -15.738,-10.04 -30.72,-10.04 z m -145.50201,90.661 c -1.706,0 -3.452,-0.893 -5.339,-2.73 -3.347,-3.259 -3.398,-5.944 -3.069,-7.92 1.506,-9.037 15.61,-21.365 37.736,-33.378 -11.002,30.293 -22.317,44.028 -29.328,44.028 z m 25.584,-187.83901 c 0.518,-1.764 1.717,-3.955 6.433,-5.248 1.237,-0.339 2.396,-0.511 3.444,-0.511 2.414,0 4.363,0.92 6.135,2.896 6.409,7.146 9.125,25.639 7.672,50.692 -14.219,-17.621 -26.648,-37.732 -23.684,-47.829 z m 65.32901,106.31001 c -13.93501,3.948 -28.15501,8.958 -41.60701,14.659 l 0.112,-0.362 -0.312,0.148 c 3.889,-14.469 7.037,-29.622 9.209,-44.33901 l 0.228,0.254 0.037,-0.339 c 10.172,10.49401 21.23801,20.64601 32.38201,29.70801 l -0.311,0.075 z m 77.106,16.079 c -1.101,5.215 -3.599,7.248 -8.908,7.248 -9.006,0 -23.27,-6.332 -40.104,-17.655 9.978,-1.844 18.982,-2.803 26.496,-2.803 14.668,0 19.703,3.508 21.398,5.599 0.535,0.659 2.162,2.666 1.118,7.611 z"
     id="path2-3"
     inkscape:connector-curvature="0"
     style="fill:#b20f1d;fill-opacity:1" /></svg>